          <svg xmlns="http://www.w3.org/2000/svg" width="44" height="45" viewBox="0 0 44 45" fill="none">
          <g clip-path="url(#clip0_10_284)">
            <path d="M44 22.9878C44 35.1384 34.1506 44.9878 22 44.9878C9.8494 44.9878 0 35.1384 0 22.9878C0 10.8372 9.8494 0.987793 22 0.987793C34.1506 0.987793 44 10.8372 44 22.9878ZM22.7876 17.2282C20.6492 18.1185 16.3731 19.9613 9.9594 22.7568C8.9166 23.1704 8.371 23.5752 8.3226 23.9712C8.239 24.64 9.0772 24.904 10.219 25.2626L10.6986 25.4166C11.8206 25.7818 13.3342 26.2086 14.1196 26.2262C14.8324 26.2409 15.6273 25.9475 16.5044 25.3462C22.4972 21.2982 25.5904 19.2529 25.784 19.2104C25.9226 19.1796 26.1118 19.14 26.2394 19.2544C26.3692 19.3688 26.356 19.5844 26.3428 19.6438C26.2592 19.998 22.968 23.0582 21.2652 24.64C20.7607 25.1152 20.2598 25.5941 19.7626 26.0766C18.7198 27.082 17.9366 27.8366 19.8066 29.0686C21.7008 30.3182 23.6126 31.5634 25.4606 32.8812C26.3714 33.5324 27.1898 34.1132 28.2018 34.023C28.7892 33.968 29.3964 33.4158 29.7044 31.7658C30.4348 27.8718 31.867 19.4282 32.197 15.9478C32.2162 15.6591 32.2036 15.3692 32.1596 15.0832C32.1336 14.853 32.0221 14.641 31.8472 14.4892C31.5832 14.2736 31.1762 14.2296 30.9958 14.2318C30.1686 14.2472 28.8992 14.6872 22.7898 17.2282" fill="#0F0B46"/>
          </g>
          <defs>
            <clipPath id="clip0_10_284">
              <rect width="44" height="44" fill="white" transform="translate(0 0.987793)"/>
            </clipPath>
          </defs>
        </svg>