<svg width="32" height="32" viewBox="0 0 32 32" fill="none" xmlns="http://www.w3.org/2000/svg">
<g clip-path="url(#clip0_34_200)">
<path d="M1.51904 15.9998C1.51904 23.9975 8.00223 30.4806 15.9998 30.4806C23.9975 30.4806 30.4811 23.9973 30.4811 15.9998C30.4811 8.0022 23.9975 1.51899 15.9998 1.51899C8.00223 1.51899 1.51904 8.00218 1.51904 15.9998Z" fill="#0C0C4F" stroke="#EC796B" stroke-width="1.14286"/>
<path fill-rule="evenodd" clip-rule="evenodd" d="M9.44665 12.4997L9.8134 11.3666C9.88795 11.1361 10.0698 10.9568 10.3011 10.8861L11.4397 10.536C11.5973 10.4878 11.5986 10.2655 11.4423 10.2148L10.3088 9.84804C10.0788 9.77351 9.89944 9.59161 9.82831 9.36031L9.47859 8.22172C9.43046 8.06454 9.20811 8.06283 9.15741 8.21958L8.79066 9.35265C8.71611 9.58266 8.53424 9.762 8.30293 9.83314L7.16433 10.1828C7.00673 10.2314 7.00502 10.4533 7.16177 10.504L8.29526 10.8708C8.52528 10.9453 8.70462 11.1276 8.77575 11.3589L9.12548 12.4971C9.1736 12.6547 9.39595 12.6564 9.44665 12.4997Z" fill="#FAFAFA"/>
<path fill-rule="evenodd" clip-rule="evenodd" d="M27.4434 11.8402C26.974 11.3153 26.2415 11.0198 25.5293 10.8986C24.8114 10.7822 24.0586 10.793 23.35 10.9189C21.916 11.1615 20.6133 11.7552 19.477 12.4877C18.8869 12.8472 18.3838 13.2632 17.8624 13.6868C17.6113 13.901 17.3822 14.1292 17.1437 14.3541L16.4921 15.0025C15.7839 15.7427 15.086 16.4168 14.4107 16.9756C13.7327 17.5319 13.0987 17.9543 12.474 18.2493C11.8497 18.5459 11.1817 18.7203 10.311 18.7482C9.4479 18.7786 8.42678 18.6229 7.33453 18.3657C6.23642 18.1098 5.08328 17.7449 3.79468 17.431C4.2443 18.6783 4.92138 19.7806 5.79067 20.7883C6.67016 21.7785 7.76836 22.6808 9.17917 23.2744C10.5696 23.8811 12.3169 24.0988 13.9507 23.7703C15.5888 23.4549 17.0264 22.697 18.1883 21.8202C19.3533 20.9346 20.2958 19.9258 21.0904 18.877C21.3097 18.5873 21.4257 18.4251 21.5844 18.1986L22.0232 17.5487C22.328 17.1468 22.6056 16.6891 22.9073 16.2908C23.4989 15.4567 24.0823 14.6236 24.7601 13.856C25.1013 13.4667 25.461 13.0943 25.8857 12.7364C26.0974 12.5618 26.3263 12.3908 26.5798 12.2368C26.8371 12.0707 27.1088 11.9407 27.4434 11.8402Z" fill="#EC796B"/>
<path fill-rule="evenodd" clip-rule="evenodd" d="M27.4434 11.8402C26.9392 10.5677 26.0017 9.4966 24.7434 8.70622C23.4927 7.9245 21.7558 7.52558 20.0344 7.86564C19.1841 8.0301 18.3603 8.34673 17.6373 8.76837C16.9176 9.18834 16.2727 9.6939 15.7144 10.2363C15.4357 10.5083 15.1827 10.7922 14.9314 11.0776L14.2799 11.9081L13.2738 13.2451C11.9912 14.9652 10.6099 16.9811 8.3432 17.5784C6.11796 18.1648 5.15283 17.6454 3.79468 17.4309C4.04302 18.072 4.35062 18.6947 4.76763 19.2424C5.17688 19.8012 5.66028 20.3261 6.26126 20.7761C6.56497 20.9922 6.88562 21.2055 7.24174 21.3864C7.59626 21.5611 7.97856 21.7149 8.38663 21.8306C9.19832 22.0531 10.1121 22.1311 10.9969 22.0113C11.8821 21.8932 12.7282 21.6128 13.4678 21.2402C14.2129 20.8711 14.8619 20.4216 15.4414 19.9473C16.5934 18.9906 17.4894 17.9336 18.2464 16.8651C18.6271 16.3309 18.9727 15.7866 19.2923 15.2421L19.6685 14.594C19.7835 14.4045 19.8998 14.2138 20.0179 14.0363C20.4946 13.323 20.9608 12.751 21.5271 12.3217C22.0854 11.8813 22.8631 11.5559 23.9021 11.4803C24.9369 11.4038 26.1315 11.5451 27.4434 11.8402Z" fill="#FAFAFA"/>
<path fill-rule="evenodd" clip-rule="evenodd" d="M21.8452 22.4124C21.8452 23.3471 22.6033 24.105 23.5378 24.105C24.4725 24.105 25.2294 23.3471 25.2294 22.4124C25.2294 21.478 24.4725 20.7199 23.5378 20.7199C22.6033 20.7199 21.8452 21.478 21.8452 22.4124Z" fill="#EC796B"/>
</g>
<defs>
<clipPath id="clip0_34_200">
<rect width="32" height="32" fill="white"/>
</clipPath>
</defs>
</svg>
