<svg width="44" height="44" viewBox="0 0 44 44" fill="none" xmlns="http://www.w3.org/2000/svg">
<path d="M44 22C44 34.1506 34.1506 44 22 44C9.8494 44 0 34.1506 0 22C0 9.8494 9.8494 0 22 0C34.1506 0 44 9.8494 44 22ZM22.7876 16.2404C20.6492 17.1307 16.3731 18.9735 9.9594 21.769C8.9166 22.1826 8.371 22.5874 8.3226 22.9834C8.239 23.6522 9.0772 23.9162 10.219 24.2748L10.6986 24.4288C11.8206 24.794 13.3342 25.2208 14.1196 25.2384C14.8324 25.2531 15.6273 24.9597 16.5044 24.3584C22.4972 20.3104 25.5904 18.2651 25.784 18.2226C25.9226 18.1918 26.1118 18.1522 26.2394 18.2666C26.3692 18.381 26.356 18.5966 26.3428 18.656C26.2592 19.0102 22.968 22.0704 21.2652 23.6522C20.7607 24.1274 20.2598 24.6063 19.7626 25.0888C18.7198 26.0942 17.9366 26.8488 19.8066 28.0808C21.7008 29.3304 23.6126 30.5756 25.4606 31.8934C26.3714 32.5446 27.1898 33.1254 28.2018 33.0352C28.7892 32.9802 29.3964 32.428 29.7044 30.778C30.4348 26.884 31.867 18.4404 32.197 14.96C32.2162 14.6713 32.2036 14.3814 32.1596 14.0954C32.1336 13.8652 32.0221 13.6532 31.8472 13.5014C31.5832 13.2858 31.1762 13.2418 30.9958 13.244C30.1686 13.2594 28.8992 13.6994 22.7898 16.2404" fill="#0F0B46"/>
</svg>
