<svg width="23" height="23" viewBox="0 0 23 23" fill="none" xmlns="http://www.w3.org/2000/svg">
<g clip-path="url(#clip0_34_191)">
<path d="M14.8782 1.90386C14.9131 1.96293 14.867 2.03596 14.7984 2.03596C13.4095 2.03596 12.2804 3.1356 12.2539 4.50205C11.7783 4.41326 11.2855 4.40658 10.7987 4.48861C10.765 3.1284 9.63883 2.03596 8.25446 2.03596C8.18583 2.03596 8.13964 1.96288 8.17451 1.90376C8.84685 0.765103 10.0962 -1.52588e-05 11.5263 -1.52588e-05C12.9565 -1.52588e-05 14.2059 0.765144 14.8782 1.90386Z" fill="url(#paint0_linear_34_191)"/>
<path d="M19.2628 10.4371C19.613 10.5432 19.9447 10.2357 19.8277 9.889C18.6073 6.27441 14.5606 4.80043 11.5073 4.80043C8.44902 4.80043 4.31201 6.32119 3.18805 9.90519C3.08005 10.2496 3.41075 10.5466 3.75582 10.4409L11.2355 8.14891C11.3882 8.10213 11.5513 8.10185 11.7042 8.14817L19.2628 10.4371Z" fill="url(#paint1_linear_34_191)"/>
<path d="M3.207 11.0136L11.2411 8.57697C11.3928 8.53097 11.5548 8.53083 11.7067 8.5766L19.7907 11.0148C20.459 11.2163 20.9163 11.8319 20.9163 12.5299V19.8021C20.8853 21.5772 19.2907 23 17.5162 23H14.5688C14.2775 23 14.0415 22.7643 14.0415 22.473V19.9233C14.0415 18.9193 14.6357 18.0106 15.5552 17.6084C16.7877 17.0693 18.2458 16.34 18.52 14.8767C18.6085 14.4043 18.3005 13.9488 17.8294 13.8551C16.6382 13.6183 15.3175 13.7098 14.2007 14.2093C12.9329 14.7763 12.6013 15.7196 12.4785 16.9864L12.3297 18.3511C12.2842 18.7682 11.8932 19.0878 11.4738 19.0878C11.0399 19.0878 10.7146 18.7574 10.6676 18.3258L10.5215 16.9864C10.4164 15.9013 10.2257 14.8473 9.10399 14.3456C7.82441 13.7733 6.53852 13.5832 5.17062 13.8551C4.69949 13.9488 4.39152 14.4043 4.48004 14.8767C4.75667 16.3528 6.20332 17.0653 7.44486 17.6084C8.36436 18.0106 8.95854 18.9193 8.95854 19.9233V22.4725C8.95854 22.7639 8.72265 23 8.43133 23H5.48388C3.70936 23 2.11473 21.5772 2.08374 19.8021V12.5281C2.08374 11.8309 2.53989 11.2159 3.207 11.0136Z" fill="url(#paint2_linear_34_191)"/>
</g>
<defs>
<linearGradient id="paint0_linear_34_191" x1="11.3153" y1="-1.24202" x2="19.5728" y2="23.1093" gradientUnits="userSpaceOnUse">
<stop stop-color="#F5D45E"/>
<stop offset="1" stop-color="#FF9600"/>
</linearGradient>
<linearGradient id="paint1_linear_34_191" x1="11.3154" y1="-1.24204" x2="19.5728" y2="23.1093" gradientUnits="userSpaceOnUse">
<stop stop-color="#F5D45E"/>
<stop offset="1" stop-color="#FF9600"/>
</linearGradient>
<linearGradient id="paint2_linear_34_191" x1="11.3154" y1="-1.24201" x2="19.5729" y2="23.1093" gradientUnits="userSpaceOnUse">
<stop stop-color="#F5D45E"/>
<stop offset="1" stop-color="#FF9600"/>
</linearGradient>
<clipPath id="clip0_34_191">
<rect width="23" height="23" fill="white"/>
</clipPath>
</defs>
</svg>
